<mxfile host="Electron" agent="Mozilla/5.0 (Windows NT 10.0; Win64; x64) AppleWebKit/537.36 (KHTML, like Gecko) draw.io/26.0.9 Chrome/128.0.6613.186 Electron/32.2.5 Safari/537.36" version="26.0.9" pages="4">
  <diagram name="Atribuição de perfil" id="QcxXevKub5DLStYah1T8">
    <mxGraphModel dx="1050" dy="621" grid="0" gridSize="10" guides="1" tooltips="1" connect="1" arrows="1" fold="1" page="1" pageScale="1" pageWidth="827" pageHeight="1169" math="0" shadow="0">
      <root>
        <mxCell id="0" />
        <mxCell id="1" parent="0" />
        <mxCell id="35acMdycuWcn4WFv4V1S-10" style="edgeStyle=none;shape=connector;rounded=0;orthogonalLoop=1;jettySize=auto;html=1;entryX=0;entryY=0.5;entryDx=0;entryDy=0;strokeColor=#09555B;align=center;verticalAlign=middle;fontFamily=JetBrains Mono;fontSource=https%3A%2F%2Ffonts.googleapis.com%2Fcss%3Ffamily%3DJetBrains%2BMono;fontSize=12;fontColor=default;labelBackgroundColor=none;startFill=0;endArrow=none;" parent="1" source="35acMdycuWcn4WFv4V1S-2" target="35acMdycuWcn4WFv4V1S-3" edge="1">
          <mxGeometry relative="1" as="geometry" />
        </mxCell>
        <mxCell id="35acMdycuWcn4WFv4V1S-12" style="edgeStyle=none;shape=connector;rounded=0;orthogonalLoop=1;jettySize=auto;html=1;strokeColor=#09555B;align=center;verticalAlign=middle;fontFamily=JetBrains Mono;fontSource=https%3A%2F%2Ffonts.googleapis.com%2Fcss%3Ffamily%3DJetBrains%2BMono;fontSize=12;fontColor=default;labelBackgroundColor=none;startFill=0;endArrow=none;" parent="1" source="35acMdycuWcn4WFv4V1S-2" target="35acMdycuWcn4WFv4V1S-11" edge="1">
          <mxGeometry relative="1" as="geometry" />
        </mxCell>
        <mxCell id="35acMdycuWcn4WFv4V1S-2" value="&lt;font style=&quot;font-size: 14px;&quot; data-font-src=&quot;https://fonts.googleapis.com/css?family=JetBrains+Mono&quot; face=&quot;JetBrains Mono&quot;&gt;Desenvolvedor&lt;/font&gt;" style="shape=umlActor;verticalLabelPosition=bottom;verticalAlign=top;html=1;rounded=0;labelBackgroundColor=none;fillColor=#eeeeee;strokeColor=#36393d;" parent="1" vertex="1">
          <mxGeometry x="196" y="595" width="35" height="70" as="geometry" />
        </mxCell>
        <mxCell id="35acMdycuWcn4WFv4V1S-3" value="Cadastra os tipos de perfis" style="ellipse;whiteSpace=wrap;html=1;labelBackgroundColor=none;fontFamily=JetBrains Mono;fontSource=https%3A%2F%2Ffonts.googleapis.com%2Fcss%3Ffamily%3DJetBrains%2BMono;fillColor=#eeeeee;strokeColor=#36393d;" parent="1" vertex="1">
          <mxGeometry x="418" y="381" width="174" height="80" as="geometry" />
        </mxCell>
        <mxCell id="35acMdycuWcn4WFv4V1S-11" value="Cadastra o Administrador do sistema" style="ellipse;whiteSpace=wrap;html=1;labelBackgroundColor=none;fontFamily=JetBrains Mono;fontSource=https%3A%2F%2Ffonts.googleapis.com%2Fcss%3Ffamily%3DJetBrains%2BMono;fillColor=#eeeeee;strokeColor=#36393d;" parent="1" vertex="1">
          <mxGeometry x="458" y="568" width="174" height="80" as="geometry" />
        </mxCell>
      </root>
    </mxGraphModel>
  </diagram>
  <diagram name="Funções Administrador" id="c5BmnECyzApVZZUjmrsU">
    <mxGraphModel dx="1219" dy="721" grid="0" gridSize="10" guides="1" tooltips="1" connect="1" arrows="1" fold="1" page="1" pageScale="1" pageWidth="827" pageHeight="1169" math="0" shadow="0">
      <root>
        <mxCell id="ToV2DuI7_0UeVNSTOhYE-0" />
        <mxCell id="ToV2DuI7_0UeVNSTOhYE-1" parent="ToV2DuI7_0UeVNSTOhYE-0" />
        <mxCell id="ToV2DuI7_0UeVNSTOhYE-2" style="edgeStyle=none;shape=connector;rounded=0;orthogonalLoop=1;jettySize=auto;html=1;strokeColor=#09555B;align=center;verticalAlign=middle;fontFamily=JetBrains Mono;fontSource=https%3A%2F%2Ffonts.googleapis.com%2Fcss%3Ffamily%3DJetBrains%2BMono;fontSize=12;fontColor=default;labelBackgroundColor=none;startFill=0;endArrow=none;" parent="ToV2DuI7_0UeVNSTOhYE-1" source="ToV2DuI7_0UeVNSTOhYE-4" target="ToV2DuI7_0UeVNSTOhYE-5" edge="1">
          <mxGeometry relative="1" as="geometry" />
        </mxCell>
        <mxCell id="ToV2DuI7_0UeVNSTOhYE-3" style="edgeStyle=none;shape=connector;rounded=0;orthogonalLoop=1;jettySize=auto;html=1;strokeColor=#09555B;align=center;verticalAlign=middle;fontFamily=JetBrains Mono;fontSource=https%3A%2F%2Ffonts.googleapis.com%2Fcss%3Ffamily%3DJetBrains%2BMono;fontSize=12;fontColor=default;labelBackgroundColor=none;startFill=0;endArrow=none;" parent="ToV2DuI7_0UeVNSTOhYE-1" source="ToV2DuI7_0UeVNSTOhYE-4" target="ToV2DuI7_0UeVNSTOhYE-6" edge="1">
          <mxGeometry relative="1" as="geometry" />
        </mxCell>
        <mxCell id="I6MJ0TdbmxPSn6hVt5Xg-2" style="edgeStyle=none;shape=connector;rounded=0;orthogonalLoop=1;jettySize=auto;html=1;strokeColor=#09555B;align=center;verticalAlign=middle;fontFamily=JetBrains Mono;fontSource=https%3A%2F%2Ffonts.googleapis.com%2Fcss%3Ffamily%3DJetBrains%2BMono;fontSize=12;fontColor=default;labelBackgroundColor=none;startFill=0;endArrow=none;" parent="ToV2DuI7_0UeVNSTOhYE-1" source="ToV2DuI7_0UeVNSTOhYE-4" target="I6MJ0TdbmxPSn6hVt5Xg-0" edge="1">
          <mxGeometry relative="1" as="geometry" />
        </mxCell>
        <mxCell id="I6MJ0TdbmxPSn6hVt5Xg-3" style="edgeStyle=none;shape=connector;rounded=0;orthogonalLoop=1;jettySize=auto;html=1;strokeColor=#09555B;align=center;verticalAlign=middle;fontFamily=JetBrains Mono;fontSource=https%3A%2F%2Ffonts.googleapis.com%2Fcss%3Ffamily%3DJetBrains%2BMono;fontSize=12;fontColor=default;labelBackgroundColor=none;startFill=0;endArrow=none;" parent="ToV2DuI7_0UeVNSTOhYE-1" source="ToV2DuI7_0UeVNSTOhYE-4" target="I6MJ0TdbmxPSn6hVt5Xg-1" edge="1">
          <mxGeometry relative="1" as="geometry" />
        </mxCell>
        <mxCell id="I6MJ0TdbmxPSn6hVt5Xg-5" style="edgeStyle=none;shape=connector;rounded=0;orthogonalLoop=1;jettySize=auto;html=1;strokeColor=#09555B;align=center;verticalAlign=middle;fontFamily=JetBrains Mono;fontSource=https%3A%2F%2Ffonts.googleapis.com%2Fcss%3Ffamily%3DJetBrains%2BMono;fontSize=12;fontColor=default;labelBackgroundColor=none;startFill=0;endArrow=none;" parent="ToV2DuI7_0UeVNSTOhYE-1" source="ToV2DuI7_0UeVNSTOhYE-4" target="I6MJ0TdbmxPSn6hVt5Xg-4" edge="1">
          <mxGeometry relative="1" as="geometry" />
        </mxCell>
        <mxCell id="I6MJ0TdbmxPSn6hVt5Xg-7" style="edgeStyle=none;shape=connector;rounded=0;orthogonalLoop=1;jettySize=auto;html=1;strokeColor=#09555B;align=center;verticalAlign=middle;fontFamily=JetBrains Mono;fontSource=https%3A%2F%2Ffonts.googleapis.com%2Fcss%3Ffamily%3DJetBrains%2BMono;fontSize=12;fontColor=default;labelBackgroundColor=none;startFill=0;endArrow=none;" parent="ToV2DuI7_0UeVNSTOhYE-1" source="ToV2DuI7_0UeVNSTOhYE-4" target="I6MJ0TdbmxPSn6hVt5Xg-6" edge="1">
          <mxGeometry relative="1" as="geometry" />
        </mxCell>
        <mxCell id="p391m22RNpDcnVjhGMRH-1" style="edgeStyle=none;shape=connector;rounded=0;orthogonalLoop=1;jettySize=auto;html=1;strokeColor=#09555B;align=center;verticalAlign=middle;fontFamily=JetBrains Mono;fontSource=https%3A%2F%2Ffonts.googleapis.com%2Fcss%3Ffamily%3DJetBrains%2BMono;fontSize=12;fontColor=default;labelBackgroundColor=none;startFill=0;endArrow=none;" parent="ToV2DuI7_0UeVNSTOhYE-1" source="ToV2DuI7_0UeVNSTOhYE-4" target="p391m22RNpDcnVjhGMRH-0" edge="1">
          <mxGeometry relative="1" as="geometry" />
        </mxCell>
        <mxCell id="ToV2DuI7_0UeVNSTOhYE-4" value="&lt;font style=&quot;font-size: 14px;&quot; data-font-src=&quot;https://fonts.googleapis.com/css?family=JetBrains+Mono&quot; face=&quot;JetBrains Mono&quot;&gt;Administrador&lt;/font&gt;" style="shape=umlActor;verticalLabelPosition=bottom;verticalAlign=top;html=1;rounded=0;labelBackgroundColor=none;fillColor=#eeeeee;strokeColor=#36393d;" parent="ToV2DuI7_0UeVNSTOhYE-1" vertex="1">
          <mxGeometry x="160" y="387" width="35" height="70" as="geometry" />
        </mxCell>
        <mxCell id="ToV2DuI7_0UeVNSTOhYE-5" value="Mantém funcionários" style="ellipse;whiteSpace=wrap;html=1;labelBackgroundColor=none;fontFamily=JetBrains Mono;fontSource=https%3A%2F%2Ffonts.googleapis.com%2Fcss%3Ffamily%3DJetBrains%2BMono;fillColor=#eeeeee;strokeColor=#36393d;" parent="ToV2DuI7_0UeVNSTOhYE-1" vertex="1">
          <mxGeometry x="195" y="19" width="174" height="80" as="geometry" />
        </mxCell>
        <mxCell id="ToV2DuI7_0UeVNSTOhYE-6" value="Mantém procedimentos" style="ellipse;whiteSpace=wrap;html=1;labelBackgroundColor=none;fontFamily=JetBrains Mono;fontSource=https%3A%2F%2Ffonts.googleapis.com%2Fcss%3Ffamily%3DJetBrains%2BMono;fillColor=#eeeeee;strokeColor=#36393d;" parent="ToV2DuI7_0UeVNSTOhYE-1" vertex="1">
          <mxGeometry x="501" y="67" width="174" height="80" as="geometry" />
        </mxCell>
        <mxCell id="I6MJ0TdbmxPSn6hVt5Xg-0" value="Mantém clientes" style="ellipse;whiteSpace=wrap;html=1;labelBackgroundColor=none;fontFamily=JetBrains Mono;fontSource=https%3A%2F%2Ffonts.googleapis.com%2Fcss%3Ffamily%3DJetBrains%2BMono;fillColor=#eeeeee;strokeColor=#36393d;" parent="ToV2DuI7_0UeVNSTOhYE-1" vertex="1">
          <mxGeometry x="413" y="307" width="174" height="80" as="geometry" />
        </mxCell>
        <mxCell id="I6MJ0TdbmxPSn6hVt5Xg-1" value="Mantém agendamentos" style="ellipse;whiteSpace=wrap;html=1;labelBackgroundColor=none;fontFamily=JetBrains Mono;fontSource=https%3A%2F%2Ffonts.googleapis.com%2Fcss%3Ffamily%3DJetBrains%2BMono;fillColor=#eeeeee;strokeColor=#36393d;" parent="ToV2DuI7_0UeVNSTOhYE-1" vertex="1">
          <mxGeometry x="387" y="507" width="174" height="80" as="geometry" />
        </mxCell>
        <mxCell id="I6MJ0TdbmxPSn6hVt5Xg-4" value="Exporta relatórios de agendamentos" style="ellipse;whiteSpace=wrap;html=1;labelBackgroundColor=none;fontFamily=JetBrains Mono;fontSource=https%3A%2F%2Ffonts.googleapis.com%2Fcss%3Ffamily%3DJetBrains%2BMono;fillColor=#eeeeee;strokeColor=#36393d;" parent="ToV2DuI7_0UeVNSTOhYE-1" vertex="1">
          <mxGeometry x="216" y="603" width="174" height="80" as="geometry" />
        </mxCell>
        <mxCell id="I6MJ0TdbmxPSn6hVt5Xg-6" value="Troca senha de acesso" style="ellipse;whiteSpace=wrap;html=1;labelBackgroundColor=none;fontFamily=JetBrains Mono;fontSource=https%3A%2F%2Ffonts.googleapis.com%2Fcss%3Ffamily%3DJetBrains%2BMono;fillColor=#eeeeee;strokeColor=#36393d;" parent="ToV2DuI7_0UeVNSTOhYE-1" vertex="1">
          <mxGeometry x="112" y="733" width="174" height="80" as="geometry" />
        </mxCell>
        <mxCell id="p391m22RNpDcnVjhGMRH-0" value="Troca e-mail" style="ellipse;whiteSpace=wrap;html=1;labelBackgroundColor=none;fontFamily=JetBrains Mono;fontSource=https%3A%2F%2Ffonts.googleapis.com%2Fcss%3Ffamily%3DJetBrains%2BMono;fillColor=#eeeeee;strokeColor=#36393d;" parent="ToV2DuI7_0UeVNSTOhYE-1" vertex="1">
          <mxGeometry y="581" width="174" height="80" as="geometry" />
        </mxCell>
        <mxCell id="wlDGoLby7ee5ka31LJ2--1" value="Realiza login no sistema" style="ellipse;whiteSpace=wrap;html=1;labelBackgroundColor=none;fontFamily=JetBrains Mono;fontSource=https%3A%2F%2Ffonts.googleapis.com%2Fcss%3Ffamily%3DJetBrains%2BMono;fillColor=#eeeeee;strokeColor=#36393d;" vertex="1" parent="ToV2DuI7_0UeVNSTOhYE-1">
          <mxGeometry x="32" y="130" width="174" height="80" as="geometry" />
        </mxCell>
        <mxCell id="wlDGoLby7ee5ka31LJ2--2" style="edgeStyle=none;shape=connector;rounded=0;orthogonalLoop=1;jettySize=auto;html=1;entryX=0.75;entryY=0.1;entryDx=0;entryDy=0;entryPerimeter=0;strokeColor=#09555B;align=center;verticalAlign=middle;fontFamily=JetBrains Mono;fontSource=https%3A%2F%2Ffonts.googleapis.com%2Fcss%3Ffamily%3DJetBrains%2BMono;fontSize=12;fontColor=default;labelBackgroundColor=none;startFill=0;endArrow=none;" edge="1" parent="ToV2DuI7_0UeVNSTOhYE-1" source="wlDGoLby7ee5ka31LJ2--1" target="ToV2DuI7_0UeVNSTOhYE-4">
          <mxGeometry relative="1" as="geometry" />
        </mxCell>
        <mxCell id="-xNebnVi-m2a52kqDaa9-0" value="Consulta funcionários" style="ellipse;whiteSpace=wrap;html=1;labelBackgroundColor=none;fontFamily=JetBrains Mono;fontSource=https%3A%2F%2Ffonts.googleapis.com%2Fcss%3Ffamily%3DJetBrains%2BMono;fillColor=#eeeeee;strokeColor=#36393d;" vertex="1" parent="ToV2DuI7_0UeVNSTOhYE-1">
          <mxGeometry x="281" y="133" width="174" height="80" as="geometry" />
        </mxCell>
        <mxCell id="-xNebnVi-m2a52kqDaa9-1" style="edgeStyle=none;shape=connector;rounded=0;orthogonalLoop=1;jettySize=auto;html=1;entryX=1;entryY=0.3333333333333333;entryDx=0;entryDy=0;entryPerimeter=0;strokeColor=#09555B;align=center;verticalAlign=middle;fontFamily=JetBrains Mono;fontSource=https%3A%2F%2Ffonts.googleapis.com%2Fcss%3Ffamily%3DJetBrains%2BMono;fontSize=12;fontColor=default;labelBackgroundColor=none;startFill=0;endArrow=none;" edge="1" parent="ToV2DuI7_0UeVNSTOhYE-1" source="-xNebnVi-m2a52kqDaa9-0" target="ToV2DuI7_0UeVNSTOhYE-4">
          <mxGeometry relative="1" as="geometry" />
        </mxCell>
        <mxCell id="-xNebnVi-m2a52kqDaa9-2" value="Consulta procedimentos" style="ellipse;whiteSpace=wrap;html=1;labelBackgroundColor=none;fontFamily=JetBrains Mono;fontSource=https%3A%2F%2Ffonts.googleapis.com%2Fcss%3Ffamily%3DJetBrains%2BMono;fillColor=#eeeeee;strokeColor=#36393d;" vertex="1" parent="ToV2DuI7_0UeVNSTOhYE-1">
          <mxGeometry x="494" y="191" width="174" height="80" as="geometry" />
        </mxCell>
        <mxCell id="sOFXwfNxksdlcMrFYQnq-0" style="edgeStyle=none;shape=connector;rounded=0;orthogonalLoop=1;jettySize=auto;html=1;entryX=0.56;entryY=0.276;entryDx=0;entryDy=0;entryPerimeter=0;strokeColor=#09555B;align=center;verticalAlign=middle;fontFamily=JetBrains Mono;fontSource=https%3A%2F%2Ffonts.googleapis.com%2Fcss%3Ffamily%3DJetBrains%2BMono;fontSize=12;fontColor=default;labelBackgroundColor=none;startFill=0;endArrow=none;" edge="1" parent="ToV2DuI7_0UeVNSTOhYE-1" source="-xNebnVi-m2a52kqDaa9-2" target="ToV2DuI7_0UeVNSTOhYE-4">
          <mxGeometry relative="1" as="geometry" />
        </mxCell>
        <mxCell id="sOFXwfNxksdlcMrFYQnq-1" value="Consulta clientes" style="ellipse;whiteSpace=wrap;html=1;labelBackgroundColor=none;fontFamily=JetBrains Mono;fontSource=https%3A%2F%2Ffonts.googleapis.com%2Fcss%3Ffamily%3DJetBrains%2BMono;fillColor=#eeeeee;strokeColor=#36393d;" vertex="1" parent="ToV2DuI7_0UeVNSTOhYE-1">
          <mxGeometry x="455" y="395" width="174" height="80" as="geometry" />
        </mxCell>
        <mxCell id="sOFXwfNxksdlcMrFYQnq-2" style="edgeStyle=none;shape=connector;rounded=0;orthogonalLoop=1;jettySize=auto;html=1;entryX=0.5;entryY=0.5;entryDx=0;entryDy=0;entryPerimeter=0;strokeColor=#09555B;align=center;verticalAlign=middle;fontFamily=JetBrains Mono;fontSource=https%3A%2F%2Ffonts.googleapis.com%2Fcss%3Ffamily%3DJetBrains%2BMono;fontSize=12;fontColor=default;labelBackgroundColor=none;startFill=0;endArrow=none;" edge="1" parent="ToV2DuI7_0UeVNSTOhYE-1" source="sOFXwfNxksdlcMrFYQnq-1" target="ToV2DuI7_0UeVNSTOhYE-4">
          <mxGeometry relative="1" as="geometry" />
        </mxCell>
        <mxCell id="sOFXwfNxksdlcMrFYQnq-3" value="Consulta agendamentos" style="ellipse;whiteSpace=wrap;html=1;labelBackgroundColor=none;fontFamily=JetBrains Mono;fontSource=https%3A%2F%2Ffonts.googleapis.com%2Fcss%3Ffamily%3DJetBrains%2BMono;fillColor=#eeeeee;strokeColor=#36393d;" vertex="1" parent="ToV2DuI7_0UeVNSTOhYE-1">
          <mxGeometry x="485" y="691" width="174" height="80" as="geometry" />
        </mxCell>
        <mxCell id="cb_Lv4VlFsiuBK2pponk-0" style="edgeStyle=none;shape=connector;rounded=0;orthogonalLoop=1;jettySize=auto;html=1;strokeColor=#09555B;align=center;verticalAlign=middle;fontFamily=JetBrains Mono;fontSource=https%3A%2F%2Ffonts.googleapis.com%2Fcss%3Ffamily%3DJetBrains%2BMono;fontSize=12;fontColor=default;labelBackgroundColor=none;startFill=0;endArrow=none;" edge="1" parent="ToV2DuI7_0UeVNSTOhYE-1" source="pd96XkUXZe4YaigdgKKn-0" target="ToV2DuI7_0UeVNSTOhYE-4">
          <mxGeometry relative="1" as="geometry" />
        </mxCell>
        <mxCell id="pd96XkUXZe4YaigdgKKn-0" value="Recebe notificação sobre status do agendamento relacionado" style="ellipse;whiteSpace=wrap;html=1;labelBackgroundColor=none;fontFamily=JetBrains Mono;fontSource=https%3A%2F%2Ffonts.googleapis.com%2Fcss%3Ffamily%3DJetBrains%2BMono;fillColor=#f5f5f5;strokeColor=#666666;fontColor=#333333;" vertex="1" parent="ToV2DuI7_0UeVNSTOhYE-1">
          <mxGeometry x="581" y="501" width="174" height="80" as="geometry" />
        </mxCell>
        <mxCell id="sp3jCJ_H4zDgScfsDKau-0" value="&lt;span style=&quot;background-color: light-dark(#ffffff, var(--ge-dark-color, #121212));&quot;&gt;Include&lt;/span&gt;" style="endArrow=open;endSize=16;endFill=0;html=1;rounded=0;strokeColor=#09555B;align=center;verticalAlign=middle;fontFamily=JetBrains Mono;fontSource=https%3A%2F%2Ffonts.googleapis.com%2Fcss%3Ffamily%3DJetBrains%2BMono;fontSize=12;fontColor=default;labelBackgroundColor=none;edgeStyle=none;dashed=1;dashPattern=8 8;" edge="1" parent="ToV2DuI7_0UeVNSTOhYE-1" source="I6MJ0TdbmxPSn6hVt5Xg-4" target="sOFXwfNxksdlcMrFYQnq-3">
          <mxGeometry x="0.1274" y="5" width="160" relative="1" as="geometry">
            <mxPoint x="654" y="589" as="sourcePoint" />
            <mxPoint x="601" y="673" as="targetPoint" />
            <mxPoint as="offset" />
          </mxGeometry>
        </mxCell>
        <mxCell id="fOiUE6XRQb6CwsCNBX_k-0" style="edgeStyle=none;shape=connector;rounded=0;orthogonalLoop=1;jettySize=auto;html=1;entryX=0.452;entryY=0.282;entryDx=0;entryDy=0;entryPerimeter=0;strokeColor=#09555B;align=center;verticalAlign=middle;fontFamily=JetBrains Mono;fontSource=https%3A%2F%2Ffonts.googleapis.com%2Fcss%3Ffamily%3DJetBrains%2BMono;fontSize=12;fontColor=default;labelBackgroundColor=none;startFill=0;endArrow=none;" edge="1" parent="ToV2DuI7_0UeVNSTOhYE-1" source="sOFXwfNxksdlcMrFYQnq-3" target="ToV2DuI7_0UeVNSTOhYE-4">
          <mxGeometry relative="1" as="geometry" />
        </mxCell>
      </root>
    </mxGraphModel>
  </diagram>
  <diagram name="Funções Funcionário" id="X79uHp4sh64Nye6P6waJ">
    <mxGraphModel dx="1050" dy="621" grid="0" gridSize="10" guides="1" tooltips="1" connect="1" arrows="1" fold="1" page="1" pageScale="1" pageWidth="827" pageHeight="1169" math="0" shadow="0">
      <root>
        <mxCell id="XHaQa1u2qdHdWe34AowM-0" />
        <mxCell id="XHaQa1u2qdHdWe34AowM-1" parent="XHaQa1u2qdHdWe34AowM-0" />
        <mxCell id="XHaQa1u2qdHdWe34AowM-2" style="edgeStyle=none;shape=connector;rounded=0;orthogonalLoop=1;jettySize=auto;html=1;entryX=0;entryY=0.5;entryDx=0;entryDy=0;strokeColor=#09555B;align=center;verticalAlign=middle;fontFamily=JetBrains Mono;fontSource=https%3A%2F%2Ffonts.googleapis.com%2Fcss%3Ffamily%3DJetBrains%2BMono;fontSize=12;fontColor=default;labelBackgroundColor=none;startFill=0;endArrow=none;" parent="XHaQa1u2qdHdWe34AowM-1" source="XHaQa1u2qdHdWe34AowM-8" target="XHaQa1u2qdHdWe34AowM-9" edge="1">
          <mxGeometry relative="1" as="geometry" />
        </mxCell>
        <mxCell id="XHaQa1u2qdHdWe34AowM-7" style="edgeStyle=none;shape=connector;rounded=0;orthogonalLoop=1;jettySize=auto;html=1;strokeColor=#09555B;align=center;verticalAlign=middle;fontFamily=JetBrains Mono;fontSource=https%3A%2F%2Ffonts.googleapis.com%2Fcss%3Ffamily%3DJetBrains%2BMono;fontSize=12;fontColor=default;labelBackgroundColor=none;startFill=0;endArrow=none;" parent="XHaQa1u2qdHdWe34AowM-1" source="XHaQa1u2qdHdWe34AowM-8" target="XHaQa1u2qdHdWe34AowM-14" edge="1">
          <mxGeometry relative="1" as="geometry" />
        </mxCell>
        <mxCell id="PH8ecy6P66k0H0MVl5tt-2" style="edgeStyle=none;shape=connector;rounded=0;orthogonalLoop=1;jettySize=auto;html=1;strokeColor=#09555B;align=center;verticalAlign=middle;fontFamily=JetBrains Mono;fontSource=https%3A%2F%2Ffonts.googleapis.com%2Fcss%3Ffamily%3DJetBrains%2BMono;fontSize=12;fontColor=default;labelBackgroundColor=none;startFill=0;endArrow=none;" parent="XHaQa1u2qdHdWe34AowM-1" source="XHaQa1u2qdHdWe34AowM-8" target="PH8ecy6P66k0H0MVl5tt-0" edge="1">
          <mxGeometry relative="1" as="geometry" />
        </mxCell>
        <mxCell id="PH8ecy6P66k0H0MVl5tt-4" style="edgeStyle=none;shape=connector;rounded=0;orthogonalLoop=1;jettySize=auto;html=1;strokeColor=#09555B;align=center;verticalAlign=middle;fontFamily=JetBrains Mono;fontSource=https%3A%2F%2Ffonts.googleapis.com%2Fcss%3Ffamily%3DJetBrains%2BMono;fontSize=12;fontColor=default;labelBackgroundColor=none;startFill=0;endArrow=none;" parent="XHaQa1u2qdHdWe34AowM-1" source="XHaQa1u2qdHdWe34AowM-8" target="PH8ecy6P66k0H0MVl5tt-3" edge="1">
          <mxGeometry relative="1" as="geometry" />
        </mxCell>
        <mxCell id="PH8ecy6P66k0H0MVl5tt-7" style="edgeStyle=none;shape=connector;rounded=0;orthogonalLoop=1;jettySize=auto;html=1;strokeColor=#09555B;align=center;verticalAlign=middle;fontFamily=JetBrains Mono;fontSource=https%3A%2F%2Ffonts.googleapis.com%2Fcss%3Ffamily%3DJetBrains%2BMono;fontSize=12;fontColor=default;labelBackgroundColor=none;startFill=0;endArrow=none;" parent="XHaQa1u2qdHdWe34AowM-1" source="XHaQa1u2qdHdWe34AowM-8" target="PH8ecy6P66k0H0MVl5tt-6" edge="1">
          <mxGeometry relative="1" as="geometry" />
        </mxCell>
        <mxCell id="XHaQa1u2qdHdWe34AowM-8" value="&lt;font face=&quot;JetBrains Mono&quot;&gt;&lt;span style=&quot;font-size: 14px;&quot;&gt;Funcionário&lt;/span&gt;&lt;/font&gt;" style="shape=umlActor;verticalLabelPosition=bottom;verticalAlign=top;html=1;rounded=0;labelBackgroundColor=none;fillColor=#eeeeee;strokeColor=#36393d;" parent="XHaQa1u2qdHdWe34AowM-1" vertex="1">
          <mxGeometry x="160" y="387" width="35" height="70" as="geometry" />
        </mxCell>
        <mxCell id="XHaQa1u2qdHdWe34AowM-9" value="Cadastra clientes" style="ellipse;whiteSpace=wrap;html=1;labelBackgroundColor=none;fontFamily=JetBrains Mono;fontSource=https%3A%2F%2Ffonts.googleapis.com%2Fcss%3Ffamily%3DJetBrains%2BMono;fillColor=#eeeeee;strokeColor=#36393d;" parent="XHaQa1u2qdHdWe34AowM-1" vertex="1">
          <mxGeometry x="483" y="208" width="174" height="80" as="geometry" />
        </mxCell>
        <mxCell id="XHaQa1u2qdHdWe34AowM-14" value="Troca senha de acesso" style="ellipse;whiteSpace=wrap;html=1;labelBackgroundColor=none;fontFamily=JetBrains Mono;fontSource=https%3A%2F%2Ffonts.googleapis.com%2Fcss%3Ffamily%3DJetBrains%2BMono;fillColor=#eeeeee;strokeColor=#36393d;" parent="XHaQa1u2qdHdWe34AowM-1" vertex="1">
          <mxGeometry x="134" y="885" width="174" height="80" as="geometry" />
        </mxCell>
        <mxCell id="PH8ecy6P66k0H0MVl5tt-0" value="Edita cadastro de clientes" style="ellipse;whiteSpace=wrap;html=1;labelBackgroundColor=none;fontFamily=JetBrains Mono;fontSource=https%3A%2F%2Ffonts.googleapis.com%2Fcss%3Ffamily%3DJetBrains%2BMono;fillColor=#eeeeee;strokeColor=#36393d;" parent="XHaQa1u2qdHdWe34AowM-1" vertex="1">
          <mxGeometry x="395" y="312" width="174" height="80" as="geometry" />
        </mxCell>
        <mxCell id="PH8ecy6P66k0H0MVl5tt-5" style="edgeStyle=none;shape=connector;rounded=0;orthogonalLoop=1;jettySize=auto;html=1;strokeColor=#09555B;align=center;verticalAlign=middle;fontFamily=JetBrains Mono;fontSource=https%3A%2F%2Ffonts.googleapis.com%2Fcss%3Ffamily%3DJetBrains%2BMono;fontSize=12;fontColor=default;labelBackgroundColor=none;startFill=0;endArrow=none;" parent="XHaQa1u2qdHdWe34AowM-1" source="PH8ecy6P66k0H0MVl5tt-1" target="XHaQa1u2qdHdWe34AowM-8" edge="1">
          <mxGeometry relative="1" as="geometry" />
        </mxCell>
        <mxCell id="PH8ecy6P66k0H0MVl5tt-1" value="Edita cadastro de agendamentos" style="ellipse;whiteSpace=wrap;html=1;labelBackgroundColor=none;fontFamily=JetBrains Mono;fontSource=https%3A%2F%2Ffonts.googleapis.com%2Fcss%3Ffamily%3DJetBrains%2BMono;fillColor=#eeeeee;strokeColor=#36393d;" parent="XHaQa1u2qdHdWe34AowM-1" vertex="1">
          <mxGeometry x="314" y="719" width="174" height="80" as="geometry" />
        </mxCell>
        <mxCell id="PH8ecy6P66k0H0MVl5tt-3" value="Cadastra agendamentos" style="ellipse;whiteSpace=wrap;html=1;labelBackgroundColor=none;fontFamily=JetBrains Mono;fontSource=https%3A%2F%2Ffonts.googleapis.com%2Fcss%3Ffamily%3DJetBrains%2BMono;fillColor=#f5f5f5;strokeColor=#666666;fontColor=#333333;" parent="XHaQa1u2qdHdWe34AowM-1" vertex="1">
          <mxGeometry x="388" y="421" width="174" height="80" as="geometry" />
        </mxCell>
        <mxCell id="PH8ecy6P66k0H0MVl5tt-6" value="Troca e-mail" style="ellipse;whiteSpace=wrap;html=1;labelBackgroundColor=none;fontFamily=JetBrains Mono;fontSource=https%3A%2F%2Ffonts.googleapis.com%2Fcss%3Ffamily%3DJetBrains%2BMono;fillColor=#eeeeee;strokeColor=#36393d;" parent="XHaQa1u2qdHdWe34AowM-1" vertex="1">
          <mxGeometry x="21" y="639" width="174" height="80" as="geometry" />
        </mxCell>
        <mxCell id="vC3R-8DJhgBOjCuawIMx-0" value="Consulta&amp;nbsp;&lt;span style=&quot;background-color: transparent; color: light-dark(rgb(51, 51, 51), rgb(193, 193, 193));&quot;&gt;agendamentos&lt;/span&gt;" style="ellipse;whiteSpace=wrap;html=1;labelBackgroundColor=none;fontFamily=JetBrains Mono;fontSource=https%3A%2F%2Ffonts.googleapis.com%2Fcss%3Ffamily%3DJetBrains%2BMono;fillColor=#f5f5f5;strokeColor=#666666;fontColor=#333333;" parent="XHaQa1u2qdHdWe34AowM-1" vertex="1">
          <mxGeometry x="323" y="541" width="174" height="80" as="geometry" />
        </mxCell>
        <mxCell id="vC3R-8DJhgBOjCuawIMx-1" value="Consulta c&lt;span style=&quot;background-color: transparent; color: light-dark(rgb(0, 0, 0), rgb(255, 255, 255));&quot;&gt;lientes&lt;/span&gt;" style="ellipse;whiteSpace=wrap;html=1;labelBackgroundColor=none;fontFamily=JetBrains Mono;fontSource=https%3A%2F%2Ffonts.googleapis.com%2Fcss%3Ffamily%3DJetBrains%2BMono;fillColor=#eeeeee;strokeColor=#36393d;" parent="XHaQa1u2qdHdWe34AowM-1" vertex="1">
          <mxGeometry x="537" y="367" width="174" height="80" as="geometry" />
        </mxCell>
        <mxCell id="vC3R-8DJhgBOjCuawIMx-2" style="edgeStyle=none;shape=connector;rounded=0;orthogonalLoop=1;jettySize=auto;html=1;entryX=0.5;entryY=0.5;entryDx=0;entryDy=0;entryPerimeter=0;strokeColor=#09555B;align=center;verticalAlign=middle;fontFamily=JetBrains Mono;fontSource=https%3A%2F%2Ffonts.googleapis.com%2Fcss%3Ffamily%3DJetBrains%2BMono;fontSize=12;fontColor=default;labelBackgroundColor=none;startFill=0;endArrow=none;" parent="XHaQa1u2qdHdWe34AowM-1" source="vC3R-8DJhgBOjCuawIMx-0" target="XHaQa1u2qdHdWe34AowM-8" edge="1">
          <mxGeometry relative="1" as="geometry" />
        </mxCell>
        <mxCell id="vC3R-8DJhgBOjCuawIMx-3" style="edgeStyle=none;shape=connector;rounded=0;orthogonalLoop=1;jettySize=auto;html=1;entryX=0.5;entryY=0.5;entryDx=0;entryDy=0;entryPerimeter=0;strokeColor=#09555B;align=center;verticalAlign=middle;fontFamily=JetBrains Mono;fontSource=https%3A%2F%2Ffonts.googleapis.com%2Fcss%3Ffamily%3DJetBrains%2BMono;fontSize=12;fontColor=default;labelBackgroundColor=none;startFill=0;endArrow=none;" parent="XHaQa1u2qdHdWe34AowM-1" source="vC3R-8DJhgBOjCuawIMx-1" target="XHaQa1u2qdHdWe34AowM-8" edge="1">
          <mxGeometry relative="1" as="geometry" />
        </mxCell>
        <mxCell id="vC3R-8DJhgBOjCuawIMx-4" value="Consulta procedimentos" style="ellipse;whiteSpace=wrap;html=1;labelBackgroundColor=none;fontFamily=JetBrains Mono;fontSource=https%3A%2F%2Ffonts.googleapis.com%2Fcss%3Ffamily%3DJetBrains%2BMono;fillColor=#eeeeee;strokeColor=#36393d;" parent="XHaQa1u2qdHdWe34AowM-1" vertex="1">
          <mxGeometry x="467" y="96" width="174" height="80" as="geometry" />
        </mxCell>
        <mxCell id="vC3R-8DJhgBOjCuawIMx-5" style="edgeStyle=none;shape=connector;rounded=0;orthogonalLoop=1;jettySize=auto;html=1;entryX=0.75;entryY=0.1;entryDx=0;entryDy=0;entryPerimeter=0;strokeColor=#09555B;align=center;verticalAlign=middle;fontFamily=JetBrains Mono;fontSource=https%3A%2F%2Ffonts.googleapis.com%2Fcss%3Ffamily%3DJetBrains%2BMono;fontSize=12;fontColor=default;labelBackgroundColor=none;startFill=0;endArrow=none;" parent="XHaQa1u2qdHdWe34AowM-1" source="vC3R-8DJhgBOjCuawIMx-4" target="XHaQa1u2qdHdWe34AowM-8" edge="1">
          <mxGeometry relative="1" as="geometry" />
        </mxCell>
        <mxCell id="vC3R-8DJhgBOjCuawIMx-6" value="Consulta funcionários" style="ellipse;whiteSpace=wrap;html=1;labelBackgroundColor=none;fontFamily=JetBrains Mono;fontSource=https%3A%2F%2Ffonts.googleapis.com%2Fcss%3Ffamily%3DJetBrains%2BMono;fillColor=#eeeeee;strokeColor=#36393d;" parent="XHaQa1u2qdHdWe34AowM-1" vertex="1">
          <mxGeometry x="236" y="149" width="174" height="80" as="geometry" />
        </mxCell>
        <mxCell id="vC3R-8DJhgBOjCuawIMx-7" style="edgeStyle=none;shape=connector;rounded=0;orthogonalLoop=1;jettySize=auto;html=1;entryX=0.75;entryY=0.1;entryDx=0;entryDy=0;entryPerimeter=0;strokeColor=#09555B;align=center;verticalAlign=middle;fontFamily=JetBrains Mono;fontSource=https%3A%2F%2Ffonts.googleapis.com%2Fcss%3Ffamily%3DJetBrains%2BMono;fontSize=12;fontColor=default;labelBackgroundColor=none;startFill=0;endArrow=none;" parent="XHaQa1u2qdHdWe34AowM-1" source="vC3R-8DJhgBOjCuawIMx-6" target="XHaQa1u2qdHdWe34AowM-8" edge="1">
          <mxGeometry relative="1" as="geometry" />
        </mxCell>
        <mxCell id="vC3R-8DJhgBOjCuawIMx-8" value="Realiza login no sistema" style="ellipse;whiteSpace=wrap;html=1;labelBackgroundColor=none;fontFamily=JetBrains Mono;fontSource=https%3A%2F%2Ffonts.googleapis.com%2Fcss%3Ffamily%3DJetBrains%2BMono;fillColor=#eeeeee;strokeColor=#36393d;" parent="XHaQa1u2qdHdWe34AowM-1" vertex="1">
          <mxGeometry x="33" y="81" width="174" height="80" as="geometry" />
        </mxCell>
        <mxCell id="vC3R-8DJhgBOjCuawIMx-9" style="edgeStyle=none;shape=connector;rounded=0;orthogonalLoop=1;jettySize=auto;html=1;entryX=0.75;entryY=0.1;entryDx=0;entryDy=0;entryPerimeter=0;strokeColor=#09555B;align=center;verticalAlign=middle;fontFamily=JetBrains Mono;fontSource=https%3A%2F%2Ffonts.googleapis.com%2Fcss%3Ffamily%3DJetBrains%2BMono;fontSize=12;fontColor=default;labelBackgroundColor=none;startFill=0;endArrow=none;" parent="XHaQa1u2qdHdWe34AowM-1" source="vC3R-8DJhgBOjCuawIMx-8" target="XHaQa1u2qdHdWe34AowM-8" edge="1">
          <mxGeometry relative="1" as="geometry" />
        </mxCell>
        <mxCell id="vC3R-8DJhgBOjCuawIMx-10" value="Recebe notificação sobre status do agendamento relacionado" style="ellipse;whiteSpace=wrap;html=1;labelBackgroundColor=none;fontFamily=JetBrains Mono;fontSource=https%3A%2F%2Ffonts.googleapis.com%2Fcss%3Ffamily%3DJetBrains%2BMono;fillColor=#f5f5f5;strokeColor=#666666;fontColor=#333333;" parent="XHaQa1u2qdHdWe34AowM-1" vertex="1">
          <mxGeometry x="600" y="571" width="174" height="80" as="geometry" />
        </mxCell>
        <mxCell id="vC3R-8DJhgBOjCuawIMx-11" style="edgeStyle=none;shape=connector;rounded=0;orthogonalLoop=1;jettySize=auto;html=1;entryX=0.5;entryY=0.5;entryDx=0;entryDy=0;entryPerimeter=0;strokeColor=#09555B;align=center;verticalAlign=middle;fontFamily=JetBrains Mono;fontSource=https%3A%2F%2Ffonts.googleapis.com%2Fcss%3Ffamily%3DJetBrains%2BMono;fontSize=12;fontColor=default;labelBackgroundColor=none;startFill=0;endArrow=none;" parent="XHaQa1u2qdHdWe34AowM-1" source="vC3R-8DJhgBOjCuawIMx-10" target="XHaQa1u2qdHdWe34AowM-8" edge="1">
          <mxGeometry relative="1" as="geometry" />
        </mxCell>
      </root>
    </mxGraphModel>
  </diagram>
  <diagram name="Funções Cliente" id="dQ5TfEKGADbtmWzZPzHs">
    <mxGraphModel dx="863" dy="511" grid="0" gridSize="10" guides="1" tooltips="1" connect="1" arrows="1" fold="1" page="1" pageScale="1" pageWidth="827" pageHeight="1169" math="0" shadow="0">
      <root>
        <mxCell id="ZirxHVDQZGuR7Z_flPWk-0" />
        <mxCell id="ZirxHVDQZGuR7Z_flPWk-1" parent="ZirxHVDQZGuR7Z_flPWk-0" />
        <mxCell id="ZirxHVDQZGuR7Z_flPWk-2" style="edgeStyle=none;shape=connector;rounded=0;orthogonalLoop=1;jettySize=auto;html=1;strokeColor=#09555B;align=center;verticalAlign=middle;fontFamily=JetBrains Mono;fontSource=https%3A%2F%2Ffonts.googleapis.com%2Fcss%3Ffamily%3DJetBrains%2BMono;fontSize=12;fontColor=default;labelBackgroundColor=none;startFill=0;endArrow=none;" edge="1" parent="ZirxHVDQZGuR7Z_flPWk-1" source="ZirxHVDQZGuR7Z_flPWk-4" target="ZirxHVDQZGuR7Z_flPWk-5">
          <mxGeometry relative="1" as="geometry" />
        </mxCell>
        <mxCell id="ZirxHVDQZGuR7Z_flPWk-3" style="edgeStyle=none;shape=connector;rounded=0;orthogonalLoop=1;jettySize=auto;html=1;strokeColor=#09555B;align=center;verticalAlign=middle;fontFamily=JetBrains Mono;fontSource=https%3A%2F%2Ffonts.googleapis.com%2Fcss%3Ffamily%3DJetBrains%2BMono;fontSize=12;fontColor=default;labelBackgroundColor=none;startFill=0;endArrow=none;exitX=1;exitY=0.3333333333333333;exitDx=0;exitDy=0;exitPerimeter=0;" edge="1" parent="ZirxHVDQZGuR7Z_flPWk-1" source="ZirxHVDQZGuR7Z_flPWk-4" target="ZirxHVDQZGuR7Z_flPWk-6">
          <mxGeometry relative="1" as="geometry" />
        </mxCell>
        <mxCell id="ZirxHVDQZGuR7Z_flPWk-4" value="&lt;font style=&quot;font-size: 14px;&quot; data-font-src=&quot;https://fonts.googleapis.com/css?family=JetBrains+Mono&quot; face=&quot;JetBrains Mono&quot;&gt;Cliente&lt;/font&gt;" style="shape=umlActor;verticalLabelPosition=bottom;verticalAlign=top;html=1;rounded=0;labelBackgroundColor=none;fillColor=#eeeeee;strokeColor=#36393d;" vertex="1" parent="ZirxHVDQZGuR7Z_flPWk-1">
          <mxGeometry x="196" y="595" width="35" height="70" as="geometry" />
        </mxCell>
        <mxCell id="ZirxHVDQZGuR7Z_flPWk-5" value="Recebe notificação do agendamento" style="ellipse;whiteSpace=wrap;html=1;labelBackgroundColor=none;fontFamily=JetBrains Mono;fontSource=https%3A%2F%2Ffonts.googleapis.com%2Fcss%3Ffamily%3DJetBrains%2BMono;fillColor=#eeeeee;strokeColor=#36393d;" vertex="1" parent="ZirxHVDQZGuR7Z_flPWk-1">
          <mxGeometry x="502" y="280" width="174" height="80" as="geometry" />
        </mxCell>
        <mxCell id="ZirxHVDQZGuR7Z_flPWk-6" value="Cancela o agendamento" style="ellipse;whiteSpace=wrap;html=1;labelBackgroundColor=none;fontFamily=JetBrains Mono;fontSource=https%3A%2F%2Ffonts.googleapis.com%2Fcss%3Ffamily%3DJetBrains%2BMono;fillColor=#eeeeee;strokeColor=#36393d;" vertex="1" parent="ZirxHVDQZGuR7Z_flPWk-1">
          <mxGeometry x="502" y="497" width="174" height="80" as="geometry" />
        </mxCell>
        <mxCell id="Fv8kLXuH2_jE60tyT9D3-0" value="Confirma o agendamento" style="ellipse;whiteSpace=wrap;html=1;labelBackgroundColor=none;fontFamily=JetBrains Mono;fontSource=https%3A%2F%2Ffonts.googleapis.com%2Fcss%3Ffamily%3DJetBrains%2BMono;fillColor=#eeeeee;strokeColor=#36393d;" vertex="1" parent="ZirxHVDQZGuR7Z_flPWk-1">
          <mxGeometry x="192" y="286" width="174" height="80" as="geometry" />
        </mxCell>
        <mxCell id="Fv8kLXuH2_jE60tyT9D3-1" style="edgeStyle=none;shape=connector;rounded=0;orthogonalLoop=1;jettySize=auto;html=1;entryX=1;entryY=0.3333333333333333;entryDx=0;entryDy=0;entryPerimeter=0;strokeColor=#09555B;align=center;verticalAlign=middle;fontFamily=JetBrains Mono;fontSource=https%3A%2F%2Ffonts.googleapis.com%2Fcss%3Ffamily%3DJetBrains%2BMono;fontSize=12;fontColor=default;labelBackgroundColor=none;startFill=0;endArrow=none;" edge="1" parent="ZirxHVDQZGuR7Z_flPWk-1" source="Fv8kLXuH2_jE60tyT9D3-0" target="ZirxHVDQZGuR7Z_flPWk-4">
          <mxGeometry relative="1" as="geometry" />
        </mxCell>
        <mxCell id="vq6JKBO8bsWutv23ndmK-0" style="edgeStyle=none;shape=connector;rounded=0;orthogonalLoop=1;jettySize=auto;html=1;strokeColor=#09555B;align=center;verticalAlign=middle;fontFamily=JetBrains Mono;fontSource=https%3A%2F%2Ffonts.googleapis.com%2Fcss%3Ffamily%3DJetBrains%2BMono;fontSize=12;fontColor=default;labelBackgroundColor=none;startFill=0;endArrow=open;dashed=1;dashPattern=8 8;endFill=0;endSize=16;entryX=0.435;entryY=0.994;entryDx=0;entryDy=0;entryPerimeter=0;" edge="1" parent="ZirxHVDQZGuR7Z_flPWk-1" source="ZirxHVDQZGuR7Z_flPWk-6" target="ZirxHVDQZGuR7Z_flPWk-5">
          <mxGeometry relative="1" as="geometry">
            <mxPoint x="319" y="763" as="sourcePoint" />
            <mxPoint x="391" y="620" as="targetPoint" />
          </mxGeometry>
        </mxCell>
        <mxCell id="vq6JKBO8bsWutv23ndmK-1" value="&lt;span style=&quot;background-color: light-dark(#ffffff, var(--ge-dark-color, #121212));&quot;&gt;Include&lt;/span&gt;" style="edgeLabel;html=1;align=center;verticalAlign=middle;resizable=0;points=[];fontFamily=JetBrains Mono;fontSource=https%3A%2F%2Ffonts.googleapis.com%2Fcss%3Ffamily%3DJetBrains%2BMono;fontSize=12;fontColor=default;labelBackgroundColor=none;" vertex="1" connectable="0" parent="vq6JKBO8bsWutv23ndmK-0">
          <mxGeometry x="-0.0931" relative="1" as="geometry">
            <mxPoint as="offset" />
          </mxGeometry>
        </mxCell>
        <mxCell id="vq6JKBO8bsWutv23ndmK-2" style="edgeStyle=none;shape=connector;rounded=0;orthogonalLoop=1;jettySize=auto;html=1;strokeColor=#09555B;align=center;verticalAlign=middle;fontFamily=JetBrains Mono;fontSource=https%3A%2F%2Ffonts.googleapis.com%2Fcss%3Ffamily%3DJetBrains%2BMono;fontSize=12;fontColor=default;labelBackgroundColor=none;startFill=0;endArrow=open;dashed=1;dashPattern=8 8;endFill=0;endSize=16;entryX=0.086;entryY=0.76;entryDx=0;entryDy=0;entryPerimeter=0;" edge="1" parent="ZirxHVDQZGuR7Z_flPWk-1" source="Fv8kLXuH2_jE60tyT9D3-0" target="ZirxHVDQZGuR7Z_flPWk-5">
          <mxGeometry relative="1" as="geometry">
            <mxPoint x="329" y="773" as="sourcePoint" />
            <mxPoint x="401" y="630" as="targetPoint" />
          </mxGeometry>
        </mxCell>
        <mxCell id="vq6JKBO8bsWutv23ndmK-3" value="&lt;span style=&quot;background-color: light-dark(#ffffff, var(--ge-dark-color, #121212));&quot;&gt;Include&lt;/span&gt;" style="edgeLabel;html=1;align=center;verticalAlign=middle;resizable=0;points=[];fontFamily=JetBrains Mono;fontSource=https%3A%2F%2Ffonts.googleapis.com%2Fcss%3Ffamily%3DJetBrains%2BMono;fontSize=12;fontColor=default;labelBackgroundColor=none;" vertex="1" connectable="0" parent="vq6JKBO8bsWutv23ndmK-2">
          <mxGeometry x="-0.0931" relative="1" as="geometry">
            <mxPoint as="offset" />
          </mxGeometry>
        </mxCell>
      </root>
    </mxGraphModel>
  </diagram>
</mxfile>
